# xmcd
#
# Track frame offsets:
# 165
# 16160
# 31352
# 44143
# 59917
# 74280
# 90492
# 107590
# 119142
# 134889
# 153618
# 164611
# 181455
# 195130
# 207113
# 218007
# 231827
# 240572
# 250845
# 261116
# 272131
# 284372
# 295878
# 306625
# 319049
#
# Disc length: 4391 seconds
#
#
# Revision: 0
# Processed by: cddbd v1.5.2PL0 Copyright (c) Steve Scherf et al.
# Submitted via: FreeRIP 2.96 
#
DISCID=88112519
DTITLE=Cacique e Paje - Dose dupla
DYEAR=1900
DGENRE=sertanejo
TTITLE0=Poeta competente
TTITLE1=Mulher do cachaceiro
TTITLE2=Pensando eu vejo
TTITLE3=Silencio na aldeia
TTITLE4=Alicerce poderoso
TTITLE5=O chifre do boi soberano
TTITLE6=A lenda do Caipora
TTITLE7=Briga de mulher
TTITLE8=Mosca branca
TTITLE9=Se os animais falassem
TTITLE10=Do que o boiadeiro gosta
TTITLE11=O folgazao e o diabo
TTITLE12=Cacando e pescando
TTITLE13=Boiadeiro do mar
TTITLE14=Sou igual a um passarinho
TTITLE15=Minha palhoca
TTITLE16=Mulher de minha vida
TTITLE17=Deixe o indio em paz
TTITLE18=Morena bonita
TTITLE19=O patrao e a secretaria
TTITLE20=o direito de nascer
TTITLE21=Canoeiro
TTITLE22=Mariposa do amor
TTITLE23=A menina e o sucuri
TTITLE24=Ninguem vive sem amor
EXTD=
EXTT0=
EXTT1=
EXTT2=
EXTT3=
EXTT4=
EXTT5=
EXTT6=
EXTT7=
EXTT8=
EXTT9=
EXTT10=
EXTT11=
EXTT12=
EXTT13=
EXTT14=
EXTT15=
EXTT16=
EXTT17=
EXTT18=
EXTT19=
EXTT20=
EXTT21=
EXTT22=
EXTT23=
EXTT24=
PLAYORDER=
